<?xml version="1.0" encoding="UTF-8" standalone="no"?>
<!-- Created with Inkscape (http://www.inkscape.org/) -->

<svg
   xmlns:dc="http://purl.org/dc/elements/1.1/"
   xmlns:cc="http://creativecommons.org/ns#"
   xmlns:rdf="http://www.w3.org/1999/02/22-rdf-syntax-ns#"
   xmlns:svg="http://www.w3.org/2000/svg"
   xmlns="http://www.w3.org/2000/svg"
   xmlns:sodipodi="http://sodipodi.sourceforge.net/DTD/sodipodi-0.dtd"
   xmlns:inkscape="http://www.inkscape.org/namespaces/inkscape"
   width="700mm"
   height="700mm"
   viewBox="0 0 700 700"
   version="1.1"
   id="svg23362"
   inkscape:version="0.92.0 r15299"
   sodipodi:docname="telefonica-logo-2022.svg"
   inkscape:export-filename="C:\Users\suitedoalex\sites\telefonica-logo-0.png"
   inkscape:export-xdpi="148.6263"
   inkscape:export-ydpi="148.6263">
  <defs
     id="defs23356" />
  <sodipodi:namedview
     id="base"
     pagecolor="#ffffff"
     bordercolor="#666666"
     borderopacity="1.0"
     inkscape:pageopacity="0.0"
     inkscape:pageshadow="2"
     inkscape:zoom="0.12374369"
     inkscape:cx="1970.9125"
     inkscape:cy="1286.0042"
     inkscape:document-units="mm"
     inkscape:current-layer="layer1"
     showgrid="false"
     inkscape:window-width="1920"
     inkscape:window-height="1017"
     inkscape:window-x="-8"
     inkscape:window-y="-8"
     inkscape:window-maximized="1" />
  <metadata
     id="metadata23359">
    <rdf:RDF>
      <cc:Work
         rdf:about="">
        <dc:format>image/svg+xml</dc:format>
        <dc:type
           rdf:resource="http://purl.org/dc/dcmitype/StillImage" />
        <dc:title></dc:title>
      </cc:Work>
    </rdf:RDF>
  </metadata>
  <g
     inkscape:label="Camada 1"
     inkscape:groupmode="layer"
     id="layer1"
     transform="translate(0,403)">
    <path
       inkscape:connector-curvature="0"
       id="path22659"
       d="m 82.60891,-80.52801 c 11.39583,0 20.63264,-9.12781 20.63264,-20.39673 0,-11.2505 -9.23681,-20.37831 -20.63264,-20.37831 -11.39582,0 -20.63263,9.12781 -20.63263,20.37831 0,11.26892 9.23681,20.39673 20.63263,20.39673 z m 0,0"
       style="fill:#0063ff;fill-opacity:1;fill-rule:nonzero;stroke:none;stroke-width:4.64548397"
       inkscape:export-filename="C:\Users\suitedoalex\sites\telefonica-logo-4.png"
       inkscape:export-xdpi="17.637436"
       inkscape:export-ydpi="17.637436" />
    <path
       inkscape:connector-curvature="0"
       id="path22661"
       d="m 131.0963,-80.52801 c 11.39583,0 20.63214,-9.12781 20.63214,-20.39673 0,-11.2505 -9.23631,-20.37831 -20.63214,-20.37831 -11.39633,0 -20.63263,9.12781 -20.63263,20.37831 0,11.26892 9.2363,20.39673 20.63263,20.39673 z m 0,0"
       style="fill:#0063ff;fill-opacity:1;fill-rule:nonzero;stroke:none;stroke-width:4.64548397"
       inkscape:export-filename="C:\Users\suitedoalex\sites\telefonica-logo-4.png"
       inkscape:export-xdpi="17.637436"
       inkscape:export-ydpi="17.637436" />
    <path
       inkscape:connector-curvature="0"
       id="path22663"
       d="m 179.58319,-80.52801 c 11.39632,0 20.63263,-9.12781 20.63263,-20.39673 0,-11.2505 -9.23631,-20.37831 -20.63263,-20.37831 -11.39583,0 -20.63214,9.12781 -20.63214,20.37831 0,11.26892 9.23631,20.39673 20.63214,20.39673 z m 0,0"
       style="fill:#0063ff;fill-opacity:1;fill-rule:nonzero;stroke:none;stroke-width:4.64548397"
       inkscape:export-filename="C:\Users\suitedoalex\sites\telefonica-logo-4.png"
       inkscape:export-xdpi="17.637436"
       inkscape:export-ydpi="17.637436" />
    <path
       inkscape:connector-curvature="0"
       id="path22665"
       d="m 131.0963,-32.60352 c 11.39583,0 20.63214,-9.14573 20.63214,-20.39623 0,-11.26891 -9.23631,-20.39673 -20.63214,-20.39673 -11.39633,0 -20.63263,9.12782 -20.63263,20.39673 0,11.2505 9.2363,20.39623 20.63263,20.39623 z m 0,0"
       style="fill:#0063ff;fill-opacity:1;fill-rule:nonzero;stroke:none;stroke-width:4.64548397"
       inkscape:export-filename="C:\Users\suitedoalex\sites\telefonica-logo-4.png"
       inkscape:export-xdpi="17.637436"
       inkscape:export-ydpi="17.637436" />
    <path
       inkscape:connector-curvature="0"
       id="path22667"
       d="m 131.0963,15.30305 c 11.39583,0 20.63214,-9.12732 20.63214,-20.37831 0,-11.26892 -9.23631,-20.39673 -20.63214,-20.39673 -11.39633,0 -20.63263,9.12781 -20.63263,20.39673 0,11.25099 9.2363,20.37831 20.63263,20.37831 z m 0,0"
       style="fill:#0063ff;fill-opacity:1;fill-rule:nonzero;stroke:none;stroke-width:4.64548397"
       inkscape:export-filename="C:\Users\suitedoalex\sites\telefonica-logo-4.png"
       inkscape:export-xdpi="17.637436"
       inkscape:export-ydpi="17.637436" />
    <path
       inkscape:connector-curvature="0"
       id="path22669"
       d="M 244.20251,-68.89628 H 225.00375 V -80.20152 H 275.36 v 11.30524 h -19.25301 v 52.02603 h -11.90448 z m 0,0"
       style="fill:#0063ff;fill-opacity:1;fill-rule:nonzero;stroke:none;stroke-width:4.64548397"
       inkscape:export-filename="C:\Users\suitedoalex\sites\telefonica-logo-4.png"
       inkscape:export-xdpi="17.637436"
       inkscape:export-ydpi="17.637436" />
    <path
       inkscape:connector-curvature="0"
       id="path22671"
       d="m 315.51838,-30.44401 c -1.00038,3.62823 -6.76872,14.48107 -21.50361,14.48107 -13.73701,0 -23.80796,-9.94453 -23.80796,-23.9717 0,-14.02716 10.07095,-23.9712 23.80796,-23.9712 12.81129,0 22.88273,9.94404 22.88273,23.06389 -0.0184,1.08997 -0.0995,2.17993 -0.24885,3.24998 l -0.19908,1.26914 h -34.80512 c 1.01531,6.4238 5.86141,10.86975 12.3758,10.86975 5.408,0 8.69232,-3.08573 9.61804,-4.99043 z m -10.07145,-13.55534 c -0.9954,-5.89774 -4.93718,-10.41586 -11.43216,-10.41586 -6.96829,0 -10.99667,4.51911 -12.3758,10.41586 z m 0,0"
       style="fill:#0063ff;fill-opacity:1;fill-rule:nonzero;stroke:none;stroke-width:4.64548397"
       inkscape:export-filename="C:\Users\suitedoalex\sites\telefonica-logo-4.png"
       inkscape:export-xdpi="17.637436"
       inkscape:export-ydpi="17.637436" />
    <path
       inkscape:connector-curvature="0"
       id="path22673"
       d="m 323.7568,-80.20152 h 11.45008 v 63.33127 H 323.7568 Z m 0,0"
       style="fill:#0063ff;fill-opacity:1;fill-rule:nonzero;stroke:none;stroke-width:4.64548397"
       inkscape:export-filename="C:\Users\suitedoalex\sites\telefonica-logo-4.png"
       inkscape:export-xdpi="17.637436"
       inkscape:export-ydpi="17.637436" />
    <path
       inkscape:connector-curvature="0"
       id="path22675"
       d="m 387.39615,-30.44401 c -1.01531,3.62823 -6.76871,14.48107 -21.52152,14.48107 -13.73701,0 -23.80796,-9.94453 -23.80796,-23.9717 0,-14.02716 10.07095,-23.9712 23.80796,-23.9712 12.8292,0 22.90065,9.94404 22.90065,23.06389 -0.0368,1.08997 -0.14931,2.17993 -0.29862,3.24998 l -0.19908,1.26914 h -34.78671 c 0.99539,6.4238 5.8614,10.86975 12.35788,10.86975 5.4075,0 8.69182,-3.08573 9.61754,-4.99043 z M 377.3247,-43.99935 c -1.0153,-5.89774 -4.95211,-10.41586 -11.45007,-10.41586 -6.95038,0 -10.97876,4.51911 -12.35788,10.41586 z m 0,0"
       style="fill:#0063ff;fill-opacity:1;fill-rule:nonzero;stroke:none;stroke-width:4.64548397"
       inkscape:export-filename="C:\Users\suitedoalex\sites\telefonica-logo-4.png"
       inkscape:export-xdpi="17.637436"
       inkscape:export-ydpi="17.637436" />
    <path
       inkscape:connector-curvature="0"
       id="path22677"
       d="m 399.28221,-52.14719 h -7.78501 v -10.86976 h 7.78501 v -6.78663 c 0,-6.87721 4.49921,-11.30525 11.45008,-11.30525 h 10.07145 v 9.96245 h -6.8593 c -0.44793,-0.0179 -0.85106,0.0498 -1.2542,0.19908 -0.39816,0.14931 -0.74157,0.39816 -1.05015,0.6719 -0.29862,0.29862 -0.52756,0.65199 -0.6918,1.05015 -0.14931,0.39815 -0.24885,0.80129 -0.19908,1.21438 v 4.97202 h 10.07145 v 10.86976 h -10.07145 v 35.29486 h -11.45057 z m 0,0"
       style="fill:#0063ff;fill-opacity:1;fill-rule:nonzero;stroke:none;stroke-width:4.64548397"
       inkscape:export-filename="C:\Users\suitedoalex\sites\telefonica-logo-4.png"
       inkscape:export-xdpi="17.637436"
       inkscape:export-ydpi="17.637436" />
    <path
       inkscape:connector-curvature="0"
       id="path22679"
       d="m 470.14368,-39.91622 c 0,14.02716 -10.08936,23.98961 -23.80795,23.98961 -13.73701,0 -23.80796,-9.98086 -23.80796,-23.98961 0,-13.99084 10.07095,-23.9717 23.80796,-23.9717 13.71859,0 23.80795,9.92612 23.80795,23.9717 z m -11.45007,0 c 0,-8.12993 -5.49859,-13.55535 -12.35788,-13.55535 -6.87771,0 -12.3758,5.42542 -12.3758,13.55535 0,8.14783 5.49809,13.57326 12.3758,13.57326 6.85929,0 12.35788,-5.44384 12.35788,-13.57326 z m 0,0"
       style="fill:#0063ff;fill-opacity:1;fill-rule:nonzero;stroke:none;stroke-width:4.64548397"
       inkscape:export-filename="C:\Users\suitedoalex\sites\telefonica-logo-4.png"
       inkscape:export-xdpi="17.637436"
       inkscape:export-ydpi="17.637436" />
    <path
       inkscape:connector-curvature="0"
       id="path22681"
       d="m 476.98506,-63.01695 h 10.54327 l 0.90581,4.55395 h 0.44793 c 0.90581,-1.03521 1.96094,-1.94103 3.12058,-2.70251 2.90159,-1.83153 6.27848,-2.77716 9.70813,-2.72241 10.52485,0 18.30987,7.69443 18.30987,19.45308 v 27.60093 h -11.45058 v -26.72995 c 0,-5.87933 -4.12095,-9.94404 -10.07095,-9.94404 -5.95199,0 -10.07145,4.0662 -10.07145,9.94404 v 26.69361 H 476.9771 Z m 0,0"
       style="fill:#0063ff;fill-opacity:1;fill-rule:nonzero;stroke:none;stroke-width:4.64548397"
       inkscape:export-filename="C:\Users\suitedoalex\sites\telefonica-logo-4.png"
       inkscape:export-xdpi="17.637436"
       inkscape:export-ydpi="17.637436" />
    <path
       inkscape:connector-curvature="0"
       id="path22683"
       d="m 592.88635,-34.05482 c -1.46821,7.24004 -7.24053,18.09188 -21.97543,18.09188 -13.737,0 -23.80795,-9.94453 -23.80795,-23.9717 0,-14.02716 10.07095,-23.9712 23.80795,-23.9712 14.7349,0 20.50572,10.85134 21.97543,17.63847 h -11.45057 c -0.9954,-2.63283 -3.66805,-7.24053 -10.52486,-7.24053 -6.87721,0 -12.39421,5.42542 -12.39421,13.59168 0,8.18367 5.49859,13.57326 12.3763,13.57326 6.85929,0 9.52646,-4.51911 10.52485,-7.69394 z m 0,0"
       style="fill:#0063ff;fill-opacity:1;fill-rule:nonzero;stroke:none;stroke-width:4.64548397"
       inkscape:export-filename="C:\Users\suitedoalex\sites\telefonica-logo-4.png"
       inkscape:export-xdpi="17.637436"
       inkscape:export-ydpi="17.637436" />
    <path
       inkscape:connector-curvature="0"
       id="path22685"
       d="m 627.4914,-21.38886 h -0.44793 c -0.92572,1.07005 -2.01568,1.97587 -3.21016,2.70251 -3.03099,1.85144 -6.51439,2.79707 -10.07145,2.72241 -10.61543,0 -16.94866,-6.4238 -16.94866,-14.02716 0,-9.03723 6.42381,-15.35204 19.23559,-15.35204 h 10.52485 v -0.90581 c 0,-5.08102 -3.10564,-8.60125 -8.23842,-8.60125 -5.13576,0 -7.78501,3.26491 -8.23892,5.87933 h -11.45007 c 1.01531,-7.60336 7.24053,-14.91656 19.68899,-14.91656 11.90398,0 19.6885,7.7666 19.6885,17.63848 v 29.41553 h -9.61755 z m -0.92572,-15.36996 h -9.61755 c -5.93407,0 -8.69232,2.28444 -8.69232,5.89774 0,3.59339 2.64776,5.87933 7.33112,5.87933 6.95037,0 10.97875,-3.99155 10.97875,-10.41636 z m 0,0"
       style="fill:#0063ff;fill-opacity:1;fill-rule:nonzero;stroke:none;stroke-width:4.64548397"
       inkscape:export-filename="C:\Users\suitedoalex\sites\telefonica-logo-4.png"
       inkscape:export-xdpi="17.637436"
       inkscape:export-ydpi="17.637436" />
    <path
       inkscape:connector-curvature="0"
       id="path22687"
       d="m 528.7931,-63.01695 h 11.45057 v 46.1467 H 528.7931 Z m 0,0"
       style="fill:#0063ff;fill-opacity:1;fill-rule:nonzero;stroke:none;stroke-width:4.64548397"
       inkscape:export-filename="C:\Users\suitedoalex\sites\telefonica-logo-4.png"
       inkscape:export-xdpi="17.637436"
       inkscape:export-ydpi="17.637436" />
    <path
       inkscape:connector-curvature="0"
       id="path22689"
       d="m 534.50918,-69.64034 c 3.73772,0 6.76871,-2.99615 6.76871,-6.69605 0,-3.70288 -3.03099,-6.69605 -6.76871,-6.69605 -3.73773,0 -6.76872,2.99615 -6.76872,6.69605 0,3.70289 3.03099,6.69605 6.76872,6.69605 z m 0,0"
       style="fill:#0063ff;fill-opacity:1;fill-rule:nonzero;stroke:none;stroke-width:4.64548397"
       inkscape:export-filename="C:\Users\suitedoalex\sites\telefonica-logo-4.png"
       inkscape:export-xdpi="17.637436"
       inkscape:export-ydpi="17.637436" />
    <path
       inkscape:connector-curvature="0"
       id="path22691"
       d="m 450.43677,-82.46954 h 11.92239 l -10.99667,13.11986 h -9.61755 z m 0,0"
       style="fill:#0063ff;fill-opacity:1;fill-rule:nonzero;stroke:none;stroke-width:4.64548397"
       inkscape:export-filename="C:\Users\suitedoalex\sites\telefonica-logo-4.png"
       inkscape:export-xdpi="17.637436"
       inkscape:export-ydpi="17.637436" />
  </g>
</svg>
